<svg width="23" height="23" viewBox="0 0 23 23" fill="none" xmlns="http://www.w3.org/2000/svg">
<g clip-path="url(#clip0_581_1643)">
<path d="M21.875 11.4146C21.875 17.2135 17.174 21.9146 11.375 21.9146C5.57601 21.9146 0.875 17.2135 0.875 11.4146C0.875 5.61556 5.57601 0.914551 11.375 0.914551C17.174 0.914551 21.875 5.61556 21.875 11.4146Z" fill="url(#paint0_linear_581_1643)" fill-opacity="0.25" stroke="url(#paint1_linear_581_1643)"/>
<path d="M8.70475 10.3173L11.375 7.64705L14.0466 10.3187L15.6004 8.76493L11.375 4.53955L7.151 8.76355L8.70475 10.3173ZM4.5 11.4146L6.05375 9.8608L7.6075 11.4146L6.05375 12.9683L4.5 11.4146ZM8.70475 12.5118L11.375 15.1821L14.0466 12.5104L15.6004 14.0635L11.375 18.2896L7.151 14.0656L7.14894 14.0635L8.70475 12.5118ZM15.1425 11.4146L16.6962 9.8608L18.25 11.4146L16.6962 12.9683L15.1425 11.4146ZM12.9507 11.4132H12.9521V11.4146L11.375 12.9917L9.79994 11.4173L9.79719 11.4146L9.79994 11.4125L10.0756 11.1361L10.2097 11.0021L11.375 9.83743L12.9514 11.4139L12.9507 11.4132Z" fill="white"/>
</g>
<defs>
<linearGradient id="paint0_linear_581_1643" x1="1.54833" y1="0.6313" x2="6.44922" y2="25.4339" gradientUnits="userSpaceOnUse">
<stop stop-color="#1BB2DE"/>
<stop offset="0.473958" stop-color="#9B6FEE" stop-opacity="0.6"/>
<stop offset="0.567708" stop-color="#7B7FEA" stop-opacity="0.6"/>
<stop offset="1" stop-color="#FB37FF"/>
</linearGradient>
<linearGradient id="paint1_linear_581_1643" x1="1.54833" y1="0.6313" x2="6.44922" y2="25.4339" gradientUnits="userSpaceOnUse">
<stop stop-color="#FB37FF"/>
<stop offset="1" stop-color="#1BB2DE"/>
</linearGradient>
<clipPath id="clip0_581_1643">
<rect width="22" height="22" fill="white" transform="translate(0.375 0.414551)"/>
</clipPath>
</defs>
</svg>
