<svg width="23" height="23" viewBox="0 0 23 23" fill="none" xmlns="http://www.w3.org/2000/svg">
<g clip-path="url(#clip0_581_1579)">
<path d="M21.625 11.4146C21.625 17.2135 16.924 21.9146 11.125 21.9146C5.32601 21.9146 0.625 17.2135 0.625 11.4146C0.625 5.61556 5.32601 0.914551 11.125 0.914551C16.924 0.914551 21.625 5.61556 21.625 11.4146Z" fill="url(#paint0_linear_581_1579)" fill-opacity="0.25" stroke="url(#paint1_linear_581_1579)"/>
<path d="M8.45475 10.3173L11.125 7.64705L13.7966 10.3187L15.3504 8.76493L11.125 4.53955L6.901 8.76355L8.45475 10.3173ZM4.25 11.4146L5.80375 9.8608L7.3575 11.4146L5.80375 12.9683L4.25 11.4146ZM8.45475 12.5118L11.125 15.1821L13.7966 12.5104L15.3504 14.0635L11.125 18.2896L6.901 14.0656L6.89894 14.0635L8.45475 12.5118ZM14.8925 11.4146L16.4462 9.8608L18 11.4146L16.4462 12.9683L14.8925 11.4146ZM12.7007 11.4132H12.7021V11.4146L11.125 12.9917L9.54994 11.4173L9.54719 11.4146L9.54994 11.4125L9.82562 11.1361L9.95969 11.0021L11.125 9.83743L12.7014 11.4139L12.7007 11.4132Z" fill="white"/>
</g>
<defs>
<linearGradient id="paint0_linear_581_1579" x1="1.29833" y1="0.6313" x2="6.19922" y2="25.4339" gradientUnits="userSpaceOnUse">
<stop stop-color="#1BB2DE"/>
<stop offset="0.473958" stop-color="#9B6FEE" stop-opacity="0.6"/>
<stop offset="0.567708" stop-color="#7B7FEA" stop-opacity="0.6"/>
<stop offset="1" stop-color="#FB37FF"/>
</linearGradient>
<linearGradient id="paint1_linear_581_1579" x1="1.29833" y1="0.6313" x2="6.19922" y2="25.4339" gradientUnits="userSpaceOnUse">
<stop stop-color="#FB37FF"/>
<stop offset="1" stop-color="#1BB2DE"/>
</linearGradient>
<clipPath id="clip0_581_1579">
<rect width="22" height="22" fill="white" transform="translate(0.125 0.414551)"/>
</clipPath>
</defs>
</svg>
