<svg width="23" height="23" viewBox="0 0 23 23" fill="none" xmlns="http://www.w3.org/2000/svg">
<g clip-path="url(#clip0_581_1561)">
<path d="M22.375 11.4146C22.375 17.2135 17.674 21.9146 11.875 21.9146C6.07601 21.9146 1.375 17.2135 1.375 11.4146C1.375 5.61556 6.07601 0.914551 11.875 0.914551C17.674 0.914551 22.375 5.61556 22.375 11.4146Z" fill="url(#paint0_linear_581_1561)" fill-opacity="0.25" stroke="url(#paint1_linear_581_1561)"/>
<path d="M16.7095 10.0533C16.9254 8.6123 15.8274 7.83749 14.3273 7.32049L14.8141 5.36799L13.6261 5.07236L13.1517 6.9733C12.8396 6.89493 12.5192 6.82205 12.1995 6.74918L12.6773 4.83586L11.4893 4.53955L11.0026 6.49136C10.7441 6.43224 10.4897 6.37449 10.2436 6.31261L10.2449 6.30643L8.60594 5.89736L8.28969 7.16649C8.28969 7.16649 9.17175 7.36861 9.15319 7.38099C9.63444 7.5013 9.72106 7.81961 9.70663 8.07261L9.1525 10.2967C9.1855 10.3049 9.22813 10.3173 9.27625 10.3359L9.15044 10.3049L8.37356 13.4207C8.31444 13.5664 8.16525 13.7857 7.82838 13.7026C7.84075 13.7197 6.96488 13.4874 6.96488 13.4874L6.375 14.8472L7.92188 15.2329C8.20925 15.3051 8.49112 15.3807 8.76819 15.4516L8.27663 17.4261L9.46394 17.7217L9.95069 15.7692C10.2752 15.8565 10.5901 15.9376 10.8981 16.0146L10.4127 17.9589L11.6007 18.2545L12.0922 16.2841C14.119 16.6677 15.6425 16.5131 16.2839 14.6802C16.8009 13.2048 16.2585 12.353 15.1922 11.7982C15.9691 11.6194 16.5534 11.1086 16.7095 10.0533V10.0533ZM13.9939 13.8607C13.6274 15.3367 11.1421 14.5386 10.3364 14.3385L10.9895 11.7226C11.7953 11.924 14.3782 12.3221 13.9939 13.8607ZM14.3617 10.032C14.0269 11.3747 11.9589 10.692 11.2886 10.5249L11.8798 8.15305C12.5501 8.32011 14.7109 8.63155 14.3617 10.032Z" fill="white"/>
</g>
<defs>
<linearGradient id="paint0_linear_581_1561" x1="2.04833" y1="0.6313" x2="6.94922" y2="25.4339" gradientUnits="userSpaceOnUse">
<stop stop-color="#1BB2DE"/>
<stop offset="0.473958" stop-color="#9B6FEE" stop-opacity="0.6"/>
<stop offset="0.567708" stop-color="#7B7FEA" stop-opacity="0.6"/>
<stop offset="1" stop-color="#FB37FF"/>
</linearGradient>
<linearGradient id="paint1_linear_581_1561" x1="2.04833" y1="0.6313" x2="6.94922" y2="25.4339" gradientUnits="userSpaceOnUse">
<stop stop-color="#FB37FF"/>
<stop offset="1" stop-color="#1BB2DE"/>
</linearGradient>
<clipPath id="clip0_581_1561">
<rect width="22" height="22" fill="white" transform="translate(0.875 0.414551)"/>
</clipPath>
</defs>
</svg>
