<svg width="23" height="23" viewBox="0 0 23 23" fill="none" xmlns="http://www.w3.org/2000/svg">
<g clip-path="url(#clip0_581_1465)">
<path d="M22.125 11.4146C22.125 17.2135 17.424 21.9146 11.625 21.9146C5.82601 21.9146 1.125 17.2135 1.125 11.4146C1.125 5.61556 5.82601 0.914551 11.625 0.914551C17.424 0.914551 22.125 5.61556 22.125 11.4146Z" fill="url(#paint0_linear_581_1465)" fill-opacity="0.25" stroke="url(#paint1_linear_581_1465)"/>
<path d="M16.4595 10.0533C16.6754 8.6123 15.5774 7.83749 14.0773 7.32049L14.5641 5.36799L13.3761 5.07236L12.9017 6.9733C12.5896 6.89493 12.2692 6.82205 11.9495 6.74918L12.4273 4.83586L11.2393 4.53955L10.7526 6.49136C10.4941 6.43224 10.2397 6.37449 9.99356 6.31261L9.99494 6.30643L8.35594 5.89736L8.03969 7.16649C8.03969 7.16649 8.92175 7.36861 8.90319 7.38099C9.38444 7.5013 9.47106 7.81961 9.45663 8.07261L8.9025 10.2967C8.9355 10.3049 8.97813 10.3173 9.02625 10.3359L8.90044 10.3049L8.12356 13.4207C8.06444 13.5664 7.91525 13.7857 7.57838 13.7026C7.59075 13.7197 6.71488 13.4874 6.71488 13.4874L6.125 14.8472L7.67188 15.2329C7.95925 15.3051 8.24112 15.3807 8.51819 15.4516L8.02663 17.4261L9.21394 17.7217L9.70069 15.7692C10.0252 15.8565 10.3401 15.9376 10.6481 16.0146L10.1627 17.9589L11.3507 18.2545L11.8422 16.2841C13.869 16.6677 15.3925 16.5131 16.0339 14.6802C16.5509 13.2048 16.0085 12.353 14.9422 11.7982C15.7191 11.6194 16.3034 11.1086 16.4595 10.0533V10.0533ZM13.7439 13.8607C13.3774 15.3367 10.8921 14.5386 10.0864 14.3385L10.7395 11.7226C11.5453 11.924 14.1282 12.3221 13.7439 13.8607ZM14.1117 10.032C13.7769 11.3747 11.7089 10.692 11.0386 10.5249L11.6298 8.15305C12.3001 8.32011 14.4609 8.63155 14.1117 10.032Z" fill="white"/>
</g>
<defs>
<linearGradient id="paint0_linear_581_1465" x1="1.79833" y1="0.6313" x2="6.69922" y2="25.4339" gradientUnits="userSpaceOnUse">
<stop stop-color="#1BB2DE"/>
<stop offset="0.473958" stop-color="#9B6FEE" stop-opacity="0.6"/>
<stop offset="0.567708" stop-color="#7B7FEA" stop-opacity="0.6"/>
<stop offset="1" stop-color="#FB37FF"/>
</linearGradient>
<linearGradient id="paint1_linear_581_1465" x1="1.79833" y1="0.6313" x2="6.69922" y2="25.4339" gradientUnits="userSpaceOnUse">
<stop stop-color="#FB37FF"/>
<stop offset="1" stop-color="#1BB2DE"/>
</linearGradient>
<clipPath id="clip0_581_1465">
<rect width="22" height="22" fill="white" transform="translate(0.625 0.414551)"/>
</clipPath>
</defs>
</svg>
