<svg width="23" height="23" viewBox="0 0 23 23" fill="none" xmlns="http://www.w3.org/2000/svg">
<g clip-path="url(#clip0_581_1657)">
<path d="M21.875 11.4146C21.875 17.2135 17.174 21.9146 11.375 21.9146C5.57601 21.9146 0.875 17.2135 0.875 11.4146C0.875 5.61556 5.57601 0.914551 11.375 0.914551C17.174 0.914551 21.875 5.61556 21.875 11.4146Z" fill="url(#paint0_linear_581_1657)" fill-opacity="0.25" stroke="url(#paint1_linear_581_1657)"/>
<path d="M16.2095 10.0533C16.4254 8.6123 15.3274 7.83749 13.8273 7.32049L14.3141 5.36799L13.1261 5.07236L12.6517 6.9733C12.3396 6.89493 12.0192 6.82205 11.6995 6.74918L12.1773 4.83586L10.9893 4.53955L10.5026 6.49136C10.2441 6.43224 9.98969 6.37449 9.74356 6.31261L9.74494 6.30643L8.10594 5.89736L7.78969 7.16649C7.78969 7.16649 8.67175 7.36861 8.65319 7.38099C9.13444 7.5013 9.22106 7.81961 9.20663 8.07261L8.6525 10.2967C8.6855 10.3049 8.72813 10.3173 8.77625 10.3359L8.65044 10.3049L7.87356 13.4207C7.81444 13.5664 7.66525 13.7857 7.32838 13.7026C7.34075 13.7197 6.46488 13.4874 6.46488 13.4874L5.875 14.8472L7.42188 15.2329C7.70925 15.3051 7.99112 15.3807 8.26819 15.4516L7.77663 17.4261L8.96394 17.7217L9.45069 15.7692C9.77519 15.8565 10.0901 15.9376 10.3981 16.0146L9.91269 17.9589L11.1007 18.2545L11.5922 16.2841C13.619 16.6677 15.1425 16.5131 15.7839 14.6802C16.3009 13.2048 15.7585 12.353 14.6922 11.7982C15.4691 11.6194 16.0534 11.1086 16.2095 10.0533V10.0533ZM13.4939 13.8607C13.1274 15.3367 10.6421 14.5386 9.83638 14.3385L10.4895 11.7226C11.2953 11.924 13.8782 12.3221 13.4939 13.8607ZM13.8617 10.032C13.5269 11.3747 11.4589 10.692 10.7886 10.5249L11.3798 8.15305C12.0501 8.32011 14.2109 8.63155 13.8617 10.032Z" fill="white"/>
</g>
<defs>
<linearGradient id="paint0_linear_581_1657" x1="1.54833" y1="0.6313" x2="6.44922" y2="25.4339" gradientUnits="userSpaceOnUse">
<stop stop-color="#1BB2DE"/>
<stop offset="0.473958" stop-color="#9B6FEE" stop-opacity="0.6"/>
<stop offset="0.567708" stop-color="#7B7FEA" stop-opacity="0.6"/>
<stop offset="1" stop-color="#FB37FF"/>
</linearGradient>
<linearGradient id="paint1_linear_581_1657" x1="1.54833" y1="0.6313" x2="6.44922" y2="25.4339" gradientUnits="userSpaceOnUse">
<stop stop-color="#FB37FF"/>
<stop offset="1" stop-color="#1BB2DE"/>
</linearGradient>
<clipPath id="clip0_581_1657">
<rect width="22" height="22" fill="white" transform="translate(0.375 0.414551)"/>
</clipPath>
</defs>
</svg>
