<svg width="23" height="23" viewBox="0 0 23 23" fill="none" xmlns="http://www.w3.org/2000/svg">
<g clip-path="url(#clip0_581_1593)">
<path d="M21.625 11.4146C21.625 17.2135 16.924 21.9146 11.125 21.9146C5.32601 21.9146 0.625 17.2135 0.625 11.4146C0.625 5.61556 5.32601 0.914551 11.125 0.914551C16.924 0.914551 21.625 5.61556 21.625 11.4146Z" fill="url(#paint0_linear_581_1593)" fill-opacity="0.25" stroke="url(#paint1_linear_581_1593)"/>
<path d="M15.9595 10.0533C16.1754 8.6123 15.0774 7.83749 13.5773 7.32049L14.0641 5.36799L12.8761 5.07236L12.4017 6.9733C12.0896 6.89493 11.7692 6.82205 11.4495 6.74918L11.9273 4.83586L10.7393 4.53955L10.2526 6.49136C9.99406 6.43224 9.73969 6.37449 9.49356 6.31261L9.49494 6.30643L7.85594 5.89736L7.53969 7.16649C7.53969 7.16649 8.42175 7.36861 8.40319 7.38099C8.88444 7.5013 8.97106 7.81961 8.95663 8.07261L8.4025 10.2967C8.4355 10.3049 8.47813 10.3173 8.52625 10.3359L8.40044 10.3049L7.62356 13.4207C7.56444 13.5664 7.41525 13.7857 7.07838 13.7026C7.09075 13.7197 6.21488 13.4874 6.21488 13.4874L5.625 14.8472L7.17188 15.2329C7.45925 15.3051 7.74112 15.3807 8.01819 15.4516L7.52663 17.4261L8.71394 17.7217L9.20069 15.7692C9.52519 15.8565 9.84006 15.9376 10.1481 16.0146L9.66269 17.9589L10.8507 18.2545L11.3422 16.2841C13.369 16.6677 14.8925 16.5131 15.5339 14.6802C16.0509 13.2048 15.5085 12.353 14.4422 11.7982C15.2191 11.6194 15.8034 11.1086 15.9595 10.0533V10.0533ZM13.2439 13.8607C12.8774 15.3367 10.3921 14.5386 9.58638 14.3385L10.2395 11.7226C11.0453 11.924 13.6282 12.3221 13.2439 13.8607ZM13.6117 10.032C13.2769 11.3747 11.2089 10.692 10.5386 10.5249L11.1298 8.15305C11.8001 8.32011 13.9609 8.63155 13.6117 10.032Z" fill="white"/>
</g>
<defs>
<linearGradient id="paint0_linear_581_1593" x1="1.29833" y1="0.6313" x2="6.19922" y2="25.4339" gradientUnits="userSpaceOnUse">
<stop stop-color="#1BB2DE"/>
<stop offset="0.473958" stop-color="#9B6FEE" stop-opacity="0.6"/>
<stop offset="0.567708" stop-color="#7B7FEA" stop-opacity="0.6"/>
<stop offset="1" stop-color="#FB37FF"/>
</linearGradient>
<linearGradient id="paint1_linear_581_1593" x1="1.29833" y1="0.6313" x2="6.19922" y2="25.4339" gradientUnits="userSpaceOnUse">
<stop stop-color="#FB37FF"/>
<stop offset="1" stop-color="#1BB2DE"/>
</linearGradient>
<clipPath id="clip0_581_1593">
<rect width="22" height="22" fill="white" transform="translate(0.125 0.414551)"/>
</clipPath>
</defs>
</svg>
