<svg width="23" height="23" viewBox="0 0 23 23" fill="none" xmlns="http://www.w3.org/2000/svg">
<g clip-path="url(#clip0_581_1647)">
<path d="M21.875 11.4146C21.875 17.2135 17.174 21.9146 11.375 21.9146C5.57601 21.9146 0.875 17.2135 0.875 11.4146C0.875 5.61556 5.57601 0.914551 11.375 0.914551C17.174 0.914551 21.875 5.61556 21.875 11.4146Z" fill="url(#paint0_linear_581_1647)" fill-opacity="0.25" stroke="url(#paint1_linear_581_1647)"/>
<path d="M11.375 3.16455V9.26268L16.5292 11.5658L11.375 3.16455Z" fill="white" fill-opacity="0.602"/>
<path d="M11.7174 3.16455L6.5625 11.5658L11.7174 9.26268V3.16455Z" fill="white"/>
<path d="M11.375 15.7816V19.9251L16.5326 12.7896L11.375 15.7816Z" fill="white" fill-opacity="0.602"/>
<path d="M11.7174 19.9251V15.7809L6.5625 12.7896L11.7174 19.9251Z" fill="white"/>
<path d="M11.375 14.6465L16.5292 11.6538L11.375 9.35205V14.6465Z" fill="white" fill-opacity="0.2"/>
<path d="M6.5625 11.6538L11.7174 14.6465V9.35205L6.5625 11.6538Z" fill="white" fill-opacity="0.602"/>
</g>
<defs>
<linearGradient id="paint0_linear_581_1647" x1="1.54833" y1="0.6313" x2="6.44922" y2="25.4339" gradientUnits="userSpaceOnUse">
<stop stop-color="#1BB2DE"/>
<stop offset="0.473958" stop-color="#9B6FEE" stop-opacity="0.6"/>
<stop offset="0.567708" stop-color="#7B7FEA" stop-opacity="0.6"/>
<stop offset="1" stop-color="#FB37FF"/>
</linearGradient>
<linearGradient id="paint1_linear_581_1647" x1="1.54833" y1="0.6313" x2="6.44922" y2="25.4339" gradientUnits="userSpaceOnUse">
<stop stop-color="#FB37FF"/>
<stop offset="1" stop-color="#1BB2DE"/>
</linearGradient>
<clipPath id="clip0_581_1647">
<rect width="22" height="22" fill="white" transform="translate(0.375 0.414551)"/>
</clipPath>
</defs>
</svg>
