<svg width="20" height="11" viewBox="0 0 20 11" fill="none" xmlns="http://www.w3.org/2000/svg">
<path fill-rule="evenodd" clip-rule="evenodd" d="M6.24567 1.88583L5.8 3H3C1.34315 3 0 4.34315 0 6V8C0 9.65685 1.34315 11 3 11H6C6 9.34315 7.34315 8 9 8H11C12.6569 8 14 9.34315 14 11H17C18.6569 11 20 9.65685 20 8V6C20 4.34315 18.6569 3 17 3H14.2L13.7543 1.88583C13.2987 0.746853 12.1956 0 10.9689 0H9.0311C7.80439 0 6.70126 0.746853 6.24567 1.88583ZM10.9689 2H9.0311C8.62219 2 8.25449 2.24895 8.10262 2.62861L7.95407 3H12.0459L11.8974 2.62861C11.7455 2.24895 11.3778 2 10.9689 2Z" fill="#AF3BFF"/>
</svg>
