<svg width="22" height="22" viewBox="0 0 22 22" fill="none" xmlns="http://www.w3.org/2000/svg">
<path d="M6.99328 3.78709C7.4968 3.50673 7.91277 3.07694 8.09501 2.53021L8.48257 1.36754C8.7548 0.55086 9.51907 0 10.3799 0H11.6219C12.4828 0 13.247 0.550859 13.5193 1.36754L13.9068 2.53021C14.0891 3.07694 14.505 3.50673 15.0085 3.78709C15.0869 3.83069 15.1644 3.87553 15.2411 3.92159C15.7358 4.21857 16.3167 4.36438 16.8819 4.2487L18.0837 4.00279C18.9271 3.8302 19.7863 4.21666 20.2167 4.96218L20.8377 6.03775C21.2681 6.78328 21.1732 7.72059 20.602 8.36469L19.787 9.28375C19.4051 9.71445 19.2401 10.2888 19.2492 10.8644C19.2506 10.9548 19.2506 11.0452 19.2492 11.1356C19.2401 11.7111 19.4051 12.2855 19.787 12.7162L20.602 13.6352C21.1732 14.2793 21.2681 15.2167 20.8377 15.9622L20.2167 17.0378C19.7862 17.7833 18.927 18.1697 18.0837 17.9971L16.882 17.7512C16.3167 17.6356 15.7359 17.7814 15.2412 18.0784C15.1644 18.1244 15.0869 18.1693 15.0085 18.2129C14.505 18.4933 14.0891 18.9231 13.9068 19.4698L13.5193 20.6325C13.247 21.4491 12.4828 22 11.6219 22H10.3799C9.51907 22 8.7548 21.4491 8.48257 20.6325L8.09501 19.4698C7.91277 18.9231 7.49679 18.4933 6.99328 18.2129C6.91494 18.1693 6.83739 18.1244 6.76065 18.0784C6.26595 17.7814 5.68509 17.6356 5.11981 17.7512L3.91811 17.9971C3.07473 18.1697 2.21553 17.7833 1.7851 17.0378L1.16412 15.9622C0.733688 15.2167 0.828609 14.2793 1.39976 13.6352L2.21479 12.7161C2.5967 12.2854 2.76176 11.7111 2.75264 11.1355C2.75121 11.0452 2.75121 10.9548 2.75264 10.8644C2.76176 10.2889 2.59671 9.7145 2.21479 9.28381L1.39976 8.36469C0.828608 7.72059 0.733688 6.78328 1.16412 6.03775L1.7851 4.96218C2.21553 4.21665 3.07473 3.8302 3.91811 4.00278L5.11989 4.24871C5.68516 4.36439 6.26602 4.21857 6.76072 3.9216C6.83744 3.87554 6.91497 3.83069 6.99328 3.78709Z" fill="#8D26E9"/>
</svg>
